<?xml version="1.0" standalone="no"?>
<!DOCTYPE svg PUBLIC "-//W3C//DTD SVG 20010904//EN"
 "http://www.w3.org/TR/2001/REC-SVG-20010904/DTD/svg10.dtd">
<svg version="1.0" xmlns="http://www.w3.org/2000/svg"
 width="300.000000pt" height="98.000000pt" viewBox="0 0 300.000000 98.000000"
 preserveAspectRatio="xMidYMid meet">
<metadata>
Created by potrace 1.10, written by Peter Selinger 2001-2011
</metadata>
<g transform="translate(0.000000,98.000000) scale(0.100000,-0.100000)"
fill="#000000" stroke="none">
<path d="M0 490 l0 -490 1500 0 1500 0 0 490 0 490 -1500 0 -1500 0 0 -490z
m2901 421 l24 -19 3 -395 3 -395 -25 -29 -24 -28 -1392 0 -1392 0 -19 24 c-18
22 -19 44 -19 421 l0 399 26 20 27 21 1382 0 c1346 0 1383 -1 1406 -19z"/>
<path d="M243 773 l-33 -4 0 -262 c0 -144 3 -273 7 -286 6 -23 7 -23 124 -19
144 5 153 11 163 101 8 80 -7 132 -42 152 -19 10 -22 14 -10 15 48 1 66 95 39
198 -11 41 -21 75 -23 77 -2 3 -30 11 -63 20 -57 14 -94 16 -162 8z m142 -107
c40 -29 -4 -168 -49 -153 -6 2 -12 37 -14 85 -3 80 -2 82 21 82 13 0 31 -6 42
-14z m-11 -258 c16 -62 3 -108 -30 -108 -23 0 -24 3 -24 65 0 62 1 65 24 65
16 0 26 -7 30 -22z"/>
<path d="M552 491 l-1 -291 63 0 63 0 -5 130 c-4 125 -4 130 15 130 34 0 41
-20 48 -143 l7 -117 48 0 47 0 7 108 c8 119 5 134 -31 174 -25 26 -25 26 -4
33 23 7 27 19 36 111 11 119 -21 146 -181 152 l-111 4 -1 -291z m136 210 c8
-5 16 -35 19 -69 7 -71 -4 -92 -48 -92 l-29 0 0 85 c0 82 1 85 23 85 12 0 28
-4 35 -9z"/>
<path d="M950 773 c-44 -7 -49 -38 -51 -291 -1 -287 -6 -276 113 -285 77 -6
150 2 166 18 8 8 15 491 8 521 -9 35 -128 54 -236 37z m137 -168 c3 -9 2 -77
-3 -153 l-9 -137 -42 -3 -43 -3 0 155 0 156 45 0 c32 0 47 -5 52 -15z"/>
<path d="M1539 768 c-44 -37 -48 -57 -51 -279 -2 -118 1 -225 5 -237 5 -13 24
-30 43 -38 38 -16 160 -19 198 -4 25 9 26 12 26 105 l0 95 -29 0 c-32 0 -41
-14 -41 -65 0 -37 -8 -42 -56 -37 -46 6 -49 21 -38 195 l9 142 48 3 47 3 0
-80 0 -81 35 0 35 0 0 131 0 130 -35 15 c-43 18 -175 19 -196 2z"/>
<path d="M1862 773 c-46 -9 -52 -43 -52 -296 0 -295 -9 -277 147 -280 81 -1
116 2 125 11 10 10 14 74 18 250 3 130 3 250 0 267 -5 24 -13 32 -45 42 -39
11 -147 15 -193 6z m136 -208 c2 -27 1 -96 -3 -152 l-7 -103 -44 0 -44 0 0
148 c0 82 3 152 7 156 4 4 25 6 48 4 l40 -3 3 -50z"/>
<path d="M2208 773 l-48 -4 0 -285 0 -284 118 0 117 0 21 33 c49 76 60 408 15
480 -11 19 -33 39 -48 46 -32 15 -106 21 -175 14z m104 -126 c16 -26 18 -98 6
-212 l-13 -120 -44 -3 -44 -3 6 137 c4 75 7 157 7 182 l0 44 37 -7 c21 -4 41
-12 45 -18z"/>
<path d="M2516 758 c-8 -26 -15 -389 -9 -472 l6 -86 133 0 134 0 0 60 0 60
-49 0 c-27 0 -63 3 -80 6 -30 6 -31 8 -31 60 l0 54 54 0 c30 0 57 4 60 9 3 5
3 23 0 40 -6 30 -8 31 -65 31 l-59 0 0 50 0 50 80 0 80 0 0 75 0 75 -125 0
c-92 0 -127 -3 -129 -12z"/>
<path d="M1283 513 c-19 -4 -23 -11 -23 -42 0 -37 2 -39 38 -45 20 -3 56 -6
80 -6 l42 0 0 50 0 50 -57 -1 c-32 -1 -68 -4 -80 -6z"/>
</g>
</svg>
