<?xml version="1.0" standalone="no"?>
<!DOCTYPE svg PUBLIC "-//W3C//DTD SVG 20010904//EN"
 "http://www.w3.org/TR/2001/REC-SVG-20010904/DTD/svg10.dtd">
<svg version="1.0" xmlns="http://www.w3.org/2000/svg"
 width="300.000000pt" height="98.000000pt" viewBox="0 0 300.000000 98.000000"
 preserveAspectRatio="xMidYMid meet">
<metadata>
Created by potrace 1.10, written by Peter Selinger 2001-2011
</metadata>
<g transform="translate(0.000000,98.000000) scale(0.100000,-0.100000)"
fill="#000000" stroke="none">
<path d="M86 909 l-26 -20 0 -399 c0 -377 1 -399 19 -421 l19 -24 1392 0 1392
0 24 28 25 29 -3 395 -3 395 -24 19 c-23 18 -60 19 -1406 19 l-1382 0 -27 -21z
m319 -144 c33 -9 61 -17 63 -20 2 -2 12 -36 23 -77 27 -103 9 -197 -39 -198
-12 -1 -9 -5 10 -15 35 -20 50 -72 42 -152 -10 -90 -19 -96 -163 -101 -117 -4
-118 -4 -124 19 -4 13 -7 142 -7 286 l0 262 33 4 c68 8 105 6 162 -8z m396 -8
c39 -26 51 -61 44 -131 -9 -92 -13 -104 -36 -111 -21 -7 -21 -7 4 -33 36 -40
39 -55 31 -174 l-7 -108 -47 0 -48 0 -7 117 c-7 123 -14 143 -48 143 -19 0
-19 -5 -15 -130 l5 -130 -63 0 -63 0 1 291 1 291 111 -4 c82 -3 118 -9 137
-21z m335 12 c32 -8 46 -17 50 -33 7 -30 0 -513 -8 -521 -16 -16 -89 -24 -166
-18 -119 9 -114 -2 -113 285 2 253 7 284 51 291 54 9 143 6 186 -4z m599 -3
l35 -15 0 -130 0 -131 -35 0 -35 0 0 81 0 80 -47 -3 -48 -3 -9 -142 c-11 -174
-8 -189 38 -195 48 -5 56 0 56 37 0 51 9 65 41 65 l29 0 0 -95 c0 -93 -1 -96
-26 -105 -38 -15 -160 -12 -198 4 -19 8 -38 25 -43 38 -4 12 -7 119 -5 237 3
222 7 242 51 279 21 17 153 16 196 -2z m320 1 c32 -10 40 -18 45 -42 3 -17 3
-137 0 -267 -4 -176 -8 -240 -18 -250 -9 -9 -44 -12 -125 -11 -156 3 -147 -15
-147 280 0 305 -3 300 140 301 36 0 83 -5 105 -11z m328 -8 c15 -7 37 -27 48
-46 45 -72 34 -404 -15 -480 l-21 -33 -117 0 -118 0 0 284 0 285 48 4 c69 7
143 1 175 -14z m387 -64 l0 -75 -80 0 -80 0 0 -50 0 -50 59 0 c57 0 59 -1 65
-31 3 -17 3 -35 0 -40 -3 -5 -30 -9 -60 -9 l-54 0 0 -54 c0 -52 1 -54 31 -60
17 -3 53 -6 80 -6 l49 0 0 -60 0 -60 -134 0 -133 0 -6 86 c-6 83 1 446 9 472
2 9 37 12 129 12 l125 0 0 -75z m-1350 -225 l0 -50 -42 0 c-24 0 -60 3 -80 6
-36 6 -38 8 -38 45 0 43 5 45 103 48 l57 1 0 -50z"/>
<path d="M322 598 c2 -48 8 -83 14 -85 45 -15 89 124 49 153 -11 8 -29 14 -42
14 -23 0 -24 -2 -21 -82z"/>
<path d="M320 365 c0 -62 1 -65 24 -65 26 0 36 17 36 58 0 51 -11 72 -36 72
-23 0 -24 -3 -24 -65z"/>
<path d="M630 625 l0 -85 29 0 c44 0 55 21 48 92 -6 63 -16 78 -54 78 -22 0
-23 -3 -23 -85z"/>
<path d="M990 464 l0 -155 43 3 42 3 9 137 c5 76 6 144 3 153 -5 10 -20 15
-52 15 l-45 0 0 -156z"/>
<path d="M1907 614 c-4 -4 -7 -74 -7 -156 l0 -148 44 0 44 0 7 103 c4 56 5
125 3 152 l-3 50 -40 3 c-23 2 -44 0 -48 -4z"/>
<path d="M2230 628 c0 -25 -3 -107 -7 -182 l-6 -137 44 3 44 3 13 120 c12 114
10 186 -6 212 -4 6 -24 14 -45 18 l-37 7 0 -44z"/>
</g>
</svg>
